<?xml version="1.0" encoding="utf-8"?>
<!-- Generator: Adobe Illustrator 23.1.1, SVG Export Plug-In . SVG Version: 6.00 Build 0)  -->
<svg version="1.1" id="Layer_1" xmlns="http://www.w3.org/2000/svg" xmlns:xlink="http://www.w3.org/1999/xlink" x="0px" y="0px"
	 viewBox="0 0 1366 738" style="enable-background:new 0 0 1366 738;" xml:space="preserve">
<style type="text/css">
	.st0{fill:none;stroke:#000000;stroke-miterlimit:10;}
</style>
<title>Asset 2</title>
<g>
	<g id="Layer_1-2">
		<path class="st0" d="M0,738c30.6-40.8,75.5-85.1,133-89c63.1-4.3,83.3,44,156,44c78,0,86.9-55.5,167-59c71.3-3.1,84,40.1,173,55
			c90.6,15.2,97.1-26.6,195-23c141.4,5.2,210.3,94.4,270,55c29.7-19.6,20.5-47,51-79c50.8-53.3,143.7-48.1,220-33
			c0.3-203,0.7-406,1-609H0V738z"/>
	</g>
</g>
</svg>
