<?xml version="1.0" encoding="utf-8"?>
<!-- Generator: Adobe Illustrator 23.1.1, SVG Export Plug-In . SVG Version: 6.00 Build 0)  -->
<svg version="1.1" id="Layer_1" xmlns="http://www.w3.org/2000/svg" xmlns:xlink="http://www.w3.org/1999/xlink" x="0px" y="0px"
	 viewBox="0 0 19 95" style="enable-background:new 0 0 19 95;" xml:space="preserve">
<style type="text/css">
	.st0{fill:#FFFFFF;stroke:#D8D8D8;stroke-width:1.5;stroke-miterlimit:10;}
</style>
<title>Asset 1cru</title>
<polyline class="st0" points="17.8,18.2 10.7,25.3 17.4,32 11.2,38.2 17.2,44.2 10.6,50.8 17.5,57.7 11.3,63.9 17.6,70.2 11.1,76.7 
	17.4,83 11,89.4 17.6,96 11.4,102.2 17.9,108.7 "/>
<title>Asset 1cru</title>
<polyline class="st0" points="17.7,-71.3 10.6,-64.2 17.3,-57.5 11.1,-51.3 17.1,-45.3 10.5,-38.7 17.4,-31.8 11.2,-25.6 
	17.5,-19.3 11,-12.8 17.3,-6.5 10.9,-0.1 17.5,6.5 11.3,12.7 17.8,19.2 "/>
</svg>
