<?xml version="1.0" encoding="utf-8"?>
<!-- Generator: Adobe Illustrator 23.1.1, SVG Export Plug-In . SVG Version: 6.00 Build 0)  -->
<svg version="1.1" id="Layer_1" xmlns="http://www.w3.org/2000/svg" xmlns:xlink="http://www.w3.org/1999/xlink" x="0px" y="0px"
	 viewBox="0 0 19 95" style="enable-background:new 0 0 19 95;" xml:space="preserve">
<style type="text/css">
	.st0{fill:#FFFFFF;stroke:#D8D8D8;stroke-width:1.5;stroke-miterlimit:10;}
</style>
<title>Asset 2cru</title>
<polyline class="st0" points="0,154.3 6.5,147.8 0.3,141.6 6.9,135 0.5,128.6 6.8,122.3 0.3,115.8 6.6,109.5 0.4,103.3 7.3,96.4 
	0.7,89.8 6.7,83.8 0.5,77.6 7.2,70.9 0.1,63.8 "/>
<polyline class="st0" points="0.6,64.8 7.1,58.3 0.9,52.1 7.5,45.5 1.1,39.1 7.4,32.8 0.9,26.3 7.2,20 1,13.8 7.9,6.9 1.3,0.3 
	7.3,-5.7 1.1,-11.9 7.8,-18.6 0.7,-25.7 "/>
</svg>
