<?xml version="1.0" encoding="utf-8"?>
<!-- Generator: Adobe Illustrator 23.1.1, SVG Export Plug-In . SVG Version: 6.00 Build 0)  -->
<svg version="1.1" id="Layer_1" xmlns="http://www.w3.org/2000/svg" xmlns:xlink="http://www.w3.org/1999/xlink" x="0px" y="0px"
	 viewBox="0 0 530 830" style="enable-background:new 0 0 530 830;" xml:space="preserve">
<style type="text/css">
	.st0{opacity:0.65;fill:none;stroke:#8DC7FD;stroke-width:3;stroke-miterlimit:10;}
	.st1{opacity:0.65;fill:#FFFFFF;stroke:#000000;stroke-width:3;stroke-miterlimit:10;}
	.st2{opacity:0.65;fill:none;stroke:#E83838;stroke-width:3;stroke-miterlimit:10;}
</style>
<polygon class="st0" points="44.4,132.7 27.2,138.7 13.4,126.7 16.9,108.8 34.1,102.9 47.9,114.8 "/>
<path class="st1" d="M32.7,156.6"/>
<polygon class="st2" points="33.4,192.6 16.2,198.5 2.4,186.6 5.9,168.7 23.1,162.7 36.9,174.7 "/>
<polygon class="st0" points="67.7,199.1 50.5,205 36.7,193.1 40.2,175.2 57.4,169.2 71.2,181.2 "/>
<polygon class="st0" points="56.1,166 38.9,172 25.1,160 28.6,142.1 45.8,136.2 59.6,148.1 "/>
<polygon class="st0" points="90.6,172.6 73.4,178.6 59.6,166.6 63.1,148.7 80.3,142.8 94.1,154.7 "/>
<polygon class="st0" points="113.3,146 96.1,152 82.3,140.1 85.7,122.2 103,116.2 116.7,128.1 "/>
<polygon class="st2" points="72.7,158.3 55.5,164.3 41.7,152.3 45.2,134.4 62.4,128.5 76.2,140.4 "/>
<polygon class="st0" points="107,164.8 89.8,170.7 76,158.8 79.5,140.9 96.7,135 110.5,146.9 "/>
<polygon class="st2" points="95.4,131.8 78.2,137.7 64.4,125.8 67.9,107.9 85.1,101.9 98.9,113.9 "/>
<polygon class="st0" points="56.4,258.6 39.2,264.6 25.4,252.6 28.9,234.7 46.1,228.8 59.8,240.7 "/>
<polygon class="st0" points="90.7,265.1 73.5,271 59.7,259.1 63.1,241.2 80.4,235.2 94.1,247.2 "/>
<polygon class="st0" points="102.1,205.7 84.9,211.7 71.1,199.7 74.6,181.8 91.8,175.9 105.6,187.8 "/>
<polygon class="st0" points="79.1,232.1 61.9,238.1 48.1,226.1 51.6,208.2 68.8,202.3 82.6,214.2 "/>
<polygon class="st0" points="113.6,238.8 96.4,244.7 82.6,232.8 86.1,214.9 103.3,208.9 117.1,220.9 "/>
<polygon class="st0" points="110.9,217.2 93.7,223.2 79.9,211.3 83.3,193.4 100.6,187.4 114.3,199.3 "/>
<polygon class="st0" points="99.5,276.8 82.3,282.8 68.5,270.8 72,252.9 89.2,247 103,258.9 "/>
<polygon class="st0" points="133.8,283.3 116.6,289.2 102.8,277.3 106.3,259.4 123.5,253.4 137.3,265.4 "/>
<polygon class="st0" points="145.3,223.9 128,229.8 114.3,217.9 117.7,200 135,194 148.7,206 "/>
<polygon class="st0" points="122.3,250.3 105,256.2 91.3,244.3 94.7,226.4 111.9,220.5 125.7,232.4 "/>
<polygon class="st0" points="156.8,257 139.5,262.9 125.8,251 129.2,233.1 146.4,227.1 160.2,239.1 "/>
</svg>
