<?xml version="1.0" encoding="utf-8"?>
<!-- Generator: Adobe Illustrator 23.1.1, SVG Export Plug-In . SVG Version: 6.00 Build 0)  -->
<svg version="1.1" id="Layer_1" xmlns="http://www.w3.org/2000/svg" xmlns:xlink="http://www.w3.org/1999/xlink" x="0px" y="0px"
	 viewBox="0 0 530 328" style="enable-background:new 0 0 530 328;" xml:space="preserve">
<style type="text/css">
	.st0{opacity:0.65;fill:none;stroke:#8DC7FD;stroke-width:3;stroke-miterlimit:10;}
	.st1{opacity:0.65;fill:none;stroke:#E83838;stroke-width:3;stroke-miterlimit:10;}
</style>
<polygon class="st0" points="323.4,216.6 320,233.1 332.6,244.3 348.6,239 352,222.4 339.4,211.2 "/>
<polygon class="st0" points="356.1,223.3 352.7,239.8 365.3,251 381.3,245.7 384.7,229.1 372.1,218 "/>
<polygon class="st0" points="345.5,191.8 342.2,208.3 354.8,219.5 370.8,214.2 374.2,197.7 361.5,186.5 "/>
<polygon class="st0" points="367.6,166.9 364.2,183.5 376.8,194.7 392.8,189.3 396.2,172.8 383.6,161.6 "/>
<polygon class="st0" points="334.9,160.2 331.5,176.8 344.1,188 360.1,182.6 363.5,166.1 350.9,154.9 "/>
<polygon class="st0" points="357.1,135.4 353.7,152 366.3,163.2 382.3,157.8 385.7,141.3 373.1,130.1 "/>
<polygon class="st0" points="378,198.5 374.6,215 387.2,226.2 403.2,220.8 406.6,204.3 394,193.1 "/>
<polygon class="st0" points="324.5,128.7 321.1,145.3 333.7,156.5 349.7,151.1 353.1,134.6 340.5,123.4 "/>
<polygon class="st0" points="314,97.3 310.6,113.8 323.2,125 339.2,119.7 342.6,103.2 330,92 "/>
<polygon class="st0" points="379.1,110.6 375.8,127.1 388.4,138.3 404.4,133 407.8,116.5 395.1,105.3 "/>
<polygon class="st1" points="312.8,185.2 309.5,201.7 322.1,212.9 338.1,207.6 341.5,191 328.9,179.9 "/>
<polygon class="st1" points="302.4,153.7 299,170.2 311.6,181.4 327.7,176.1 331,159.6 318.4,148.4 "/>
<polygon class="st0" points="369.7,218.8 366.3,235.4 378.9,246.6 394.9,241.2 398.3,224.7 385.7,213.5 "/>
<polygon class="st1" points="402.2,225.5 398.8,242 411.4,253.2 427.4,247.9 430.8,231.4 418.2,220.2 "/>
<polygon class="st1" points="391.6,194 388.2,210.5 400.8,221.7 416.8,216.4 420.2,199.9 407.6,188.7 "/>
<polygon class="st1" points="413.6,169.3 410.2,185.8 422.8,197 438.8,191.7 442.2,175.2 429.6,164 "/>
<polygon class="st0" points="381.2,162.5 377.8,179 390.4,190.2 406.4,184.9 409.8,168.4 397.2,157.2 "/>
<polygon class="st1" points="339.3,123.8 336,140.3 348.6,151.5 364.6,146.2 368,129.7 355.4,118.5 "/>
<polygon class="st0" points="371.7,130.6 368.3,147.1 380.9,158.3 396.9,153 400.3,136.4 387.7,125.2 "/>
<polygon class="st1" points="361.6,99 358.2,115.5 370.8,126.7 386.8,121.4 390.2,104.9 377.6,93.7 "/>
<polygon class="st0" points="301,241.3 297.6,257.8 310.2,269 326.2,263.7 329.6,247.2 317,236 "/>
<polygon class="st1" points="290.5,209.9 287.1,226.4 299.7,237.6 315.7,232.3 319.1,215.8 306.5,204.6 "/>
<polygon class="st1" points="280.1,178.4 276.7,194.9 289.3,206.1 305.3,200.8 308.7,184.3 296.1,173.1 "/>
<polygon class="st0" points="279,266.1 275.6,282.6 288.2,293.8 304.2,288.5 307.6,271.9 295,260.7 "/>
<polygon class="st1" points="268.5,234.7 265.1,251.2 277.7,262.4 293.7,257.1 297.1,240.5 284.5,229.3 "/>
<polygon class="st0" points="334,248.1 330.6,264.6 343.2,275.8 359.2,270.4 362.6,253.9 350,242.7 "/>
<polygon class="st0" points="311.8,272.8 308.4,289.3 321.1,300.5 337.1,295.2 340.4,278.7 327.8,267.5 "/>
<polygon class="st0" points="366.5,254.7 363.1,271.2 375.7,282.4 391.7,277.1 395.1,260.6 382.5,249.4 "/>
<polygon class="st0" points="344.5,279.5 341.2,296 353.8,307.2 369.8,301.9 373.2,285.4 360.5,274.2 "/>
</svg>
