<?xml version="1.0" encoding="utf-8"?>
<!-- Generator: Adobe Illustrator 23.1.1, SVG Export Plug-In . SVG Version: 6.00 Build 0)  -->
<svg version="1.1" id="Layer_1" xmlns="http://www.w3.org/2000/svg" xmlns:xlink="http://www.w3.org/1999/xlink" x="0px" y="0px"
	 viewBox="0 0 530 830" style="enable-background:new 0 0 530 830;" xml:space="preserve">
<style type="text/css">
	.st0{opacity:0.65;fill:none;stroke:#8DC7FD;stroke-width:3;stroke-miterlimit:10;enable-background:new    ;}
	.st1{opacity:0.65;fill:#FFFFFF;stroke:#000000;stroke-width:3;stroke-miterlimit:10;enable-background:new    ;}
	.st2{opacity:0.65;fill:none;stroke:#E83838;stroke-width:3;stroke-miterlimit:10;enable-background:new    ;}
</style>
<polygon class="st0" points="42.1,161 26.3,166.6 13.4,155.5 16.7,138.9 32.6,133.4 45.4,144.5 "/>
<path class="st1" d="M31.3,183.2"/>
<polygon class="st2" points="31.9,216.5 16.1,222 3.2,210.9 6.5,194.4 22.5,188.8 35.2,199.9 "/>
<polygon class="st0" points="63.7,222.5 47.7,228 35,217 38.2,200.4 54.1,194.8 66.9,205.9 "/>
<polygon class="st0" points="52.9,191.9 37.1,197.4 24.3,186.3 27.6,169.7 43.4,164.3 56.2,175.3 "/>
<polygon class="st0" points="84.9,198 68.9,203.5 56.2,192.4 59.4,175.9 75.4,170.4 88.1,181.4 "/>
<polygon class="st0" points="106,173.4 90,178.9 77.3,167.9 80.3,151.3 96.3,145.8 109,156.8 "/>
<polygon class="st2" points="68.3,184.7 52.4,190.3 39.6,179.2 42.8,162.6 58.8,157.1 71.5,168.2 "/>
<polygon class="st0" points="100.1,190.8 84.2,196.2 71.3,185.2 74.6,168.6 90.5,163.2 103.3,174.2 "/>
<polygon class="st2" points="89.3,160.2 73.4,165.7 60.6,154.6 63.9,138.1 79.8,132.5 92.6,143.6 "/>
<polygon class="st0" points="53.2,277.6 37.3,283.2 24.5,272.1 27.8,255.5 43.7,250 56.3,261 "/>
<polygon class="st0" points="85,283.6 69,289.1 56.3,278.1 59.4,261.5 75.4,255.9 88.1,267.1 "/>
<polygon class="st0" points="95.5,228.6 79.7,234.2 66.8,223.1 70.1,206.5 86.1,201 98.8,212.1 "/>
<polygon class="st0" points="74.2,253.1 58.4,258.6 45.5,247.5 48.8,230.9 64.8,225.5 77.5,236.5 "/>
<polygon class="st0" points="106.2,259.3 90.2,264.7 77.5,253.7 80.7,237.1 96.7,231.6 109.4,242.7 "/>
<polygon class="st0" points="110.6,222.5 94.7,228.1 81.9,217.1 85.1,200.5 101.1,194.9 113.8,205.9 "/>
<polygon class="st0" points="100.1,277.7 84.2,283.3 71.3,272.1 74.6,255.6 90.5,250.1 103.3,261.1 "/>
<polygon class="st2" points="131.9,283.7 115.9,289.2 103.2,278.2 106.4,261.6 122.4,256 135.1,267.1 "/>
<polygon class="st2" points="142.6,228.7 126.5,234.2 113.8,223.2 116.9,206.6 133,201 145.7,212.1 "/>
<polygon class="st2" points="121.3,253.2 105.1,258.6 92.6,247.6 95.6,231 111.5,225.6 124.4,236.6 "/>
<polygon class="st2" points="460.6,49.1 444.7,54.5 431.9,43.5 435.2,26.9 451.1,21.4 463.9,32.5 "/>
<polygon class="st2" points="441.3,71.4 425.4,76.9 412.6,65.8 415.9,49.3 431.8,43.7 444.6,54.8 "/>
<polygon class="st0" points="438.3,49.1 422.3,54.5 409.6,43.5 412.7,26.9 428.8,21.4 441.5,32.5 "/>
<polygon class="st0" points="464.8,71.4 448.8,76.9 436.1,65.8 439.1,49.3 455.2,43.7 467.9,54.8 "/>
</svg>
