<?xml version="1.0" encoding="utf-8"?>
<!-- Generator: Adobe Illustrator 23.1.1, SVG Export Plug-In . SVG Version: 6.00 Build 0)  -->
<svg version="1.1" id="Layer_1" xmlns="http://www.w3.org/2000/svg" xmlns:xlink="http://www.w3.org/1999/xlink" x="0px" y="0px"
	 viewBox="0 0 84 42.5" style="enable-background:new 0 0 84 42.5;" xml:space="preserve">
<style type="text/css">
	.st0{opacity:0.65;fill:none;stroke:#E93938;stroke-width:2;stroke-miterlimit:10;enable-background:new    ;}
	.st1{opacity:0.65;fill:none;stroke:#95C4E9;stroke-width:2;stroke-miterlimit:10;enable-background:new    ;}
	.st2{fill:#F38280;}
	.st3{fill:#BAD8EF;}
</style>
<polygon class="st0" points="41.3,13.4 38.9,24.9 47.6,32.6 58.8,29 61.1,17.5 52.4,9.7 "/>
<polygon class="st1" points="27.1,12.8 24.7,24.3 33.5,32.1 44.6,28.4 47,16.9 38.2,9.2 "/>
<path class="st2" d="M40.4,12.6c0.6,0.6,1.2,1,1.8,1.6c3.3-1.1,6.7-2.2,10-3.3c0.1-0.8,0.3-1.6,0.5-2.4
	C48.6,9.9,44.5,11.2,40.4,12.6z"/>
<polyline class="st3" points="33.7,30.9 43.7,27.6 45.4,29.2 33.2,33.3 "/>
</svg>
