<?xml version="1.0" encoding="utf-8"?>
<!-- Generator: Adobe Illustrator 23.1.1, SVG Export Plug-In . SVG Version: 6.00 Build 0)  -->
<svg version="1.1" id="Layer_1" xmlns="http://www.w3.org/2000/svg" xmlns:xlink="http://www.w3.org/1999/xlink" x="0px" y="0px"
	 viewBox="0 0 530 328" style="enable-background:new 0 0 530 328;" xml:space="preserve">
<style type="text/css">
	.st0{opacity:0.65;fill:none;stroke:#8DC7FD;stroke-width:3;stroke-miterlimit:10;enable-background:new    ;}
	.st1{opacity:0.65;fill:#FFFFFF;stroke:#000000;stroke-width:3;stroke-miterlimit:10;enable-background:new    ;}
	.st2{opacity:0.65;fill:none;stroke:#E83838;stroke-width:3;stroke-miterlimit:10;enable-background:new    ;}
</style>
<polygon class="st0" points="40.9,191.6 25.1,197 12.2,186.3 15.5,170.3 31.4,165 44.2,175.7 "/>
<path class="st1" d="M30.1,213.1"/>
<polygon class="st2" points="30,246.1 14.2,251.4 1.3,240.7 4.6,224.8 20.6,219.4 33.3,230.1 "/>
<polygon class="st0" points="62.5,252 46.5,257.3 33.8,246.7 37,230.7 52.9,225.3 65.7,236 "/>
<polygon class="st0" points="51.5,221.8 35.7,227.2 22.8,216.4 26.2,200.4 42,195.2 54.8,205.8 "/>
<polygon class="st0" points="84.1,227.9 68.1,233.2 55.4,222.5 58.6,206.6 74.6,201.2 87.4,211.9 "/>
<polygon class="st0" points="104.9,202.9 88.8,208.3 76,197.6 79,181.6 95.1,176.3 108,186.9 "/>
<polygon class="st2" points="68,216.2 52.1,221.6 39.2,210.9 42.5,194.9 58.5,189.6 71.2,200.3 "/>
<polygon class="st0" points="100.5,222.4 84.6,227.7 71.7,217 75,200.9 90.9,195.7 103.7,206.3 "/>
<polygon class="st2" points="89.5,192.1 73.6,197.4 60.8,186.7 64.1,170.8 80,165.4 92.8,176.1 "/>
<polygon class="st0" points="51.2,306.6 35.2,312 22.3,301.3 25.6,285.3 41.6,280 54.3,290.6 "/>
<polygon class="st0" points="83.7,312.8 67.6,318.1 54.8,307.5 57.9,291.5 74,286.1 86.8,296.9 "/>
<polygon class="st0" points="94.7,258 78.9,263.4 66,252.7 69.3,236.7 85.3,231.4 98,242.1 "/>
<polygon class="st0" points="73,282.2 57.2,287.5 44.3,276.8 47.6,260.8 63.6,255.6 76.3,266.2 "/>
<polygon class="st0" points="105.6,289.2 89.6,294.6 76.9,283.6 80.1,267 96.1,261.5 108.8,272.6 "/>
<polygon class="st0" points="111.3,252.5 95.3,257.9 82.5,247.3 85.7,231.3 101.7,225.9 114.5,236.5 "/>
<polygon class="st0" points="100.3,307.1 84.4,312.5 71.5,301.7 74.8,285.8 90.7,280.5 103.5,291.1 "/>
<polygon class="st2" points="132.8,313.3 116.8,318.6 104,308 107.3,292 123.3,286.6 136,297.3 "/>
<polygon class="st2" points="144,258.6 127.9,263.9 115.1,253.3 118.3,237.3 134.4,231.9 147.1,242.6 "/>
<polygon class="st2" points="122.4,283 106.1,288.2 93.5,277.5 96.5,261.4 112.5,256.2 125.5,266.9 "/>
<polygon class="st2" points="444.7,48.7 428.8,54 416,43.3 419.3,27.3 435.2,22 448,32.7 "/>
<polygon class="st2" points="425.4,71 409.5,76.3 396.7,65.6 400,49.7 415.9,44.3 428.7,55 "/>
<polygon class="st0" points="422.4,48.7 406.4,54 393.6,43.3 396.8,27.3 412.9,22 425.6,32.7 "/>
<polygon class="st0" points="448.9,71 432.9,76.3 420.2,65.6 423.2,49.7 439.3,44.3 452,55 "/>
</svg>
