<?xml version="1.0" encoding="utf-8"?>
<!-- Generator: Adobe Illustrator 23.1.1, SVG Export Plug-In . SVG Version: 6.00 Build 0)  -->
<svg version="1.1" id="Layer_1" xmlns="http://www.w3.org/2000/svg" xmlns:xlink="http://www.w3.org/1999/xlink" x="0px" y="0px"
	 viewBox="0 0 530 328" style="enable-background:new 0 0 530 328;" xml:space="preserve">
<style type="text/css">
	.st0{opacity:0.65;fill:none;stroke:#8DC7FD;stroke-width:3;stroke-miterlimit:10;enable-background:new    ;}
	.st1{opacity:0.65;fill:#FFFFFF;stroke:#000000;stroke-width:3;stroke-miterlimit:10;enable-background:new    ;}
	.st2{opacity:0.65;fill:none;stroke:#E83838;stroke-width:3;stroke-miterlimit:10;enable-background:new    ;}
</style>
<polygon class="st0" points="42.1,161.7 26.3,167.1 13.4,156.4 16.7,140.4 32.6,135.1 45.4,145.8 "/>
<path class="st1" d="M31.3,183.2"/>
<polygon class="st2" points="31.2,216.2 15.4,221.5 2.5,210.8 5.8,194.9 21.8,189.5 34.5,200.2 "/>
<polygon class="st0" points="63.7,222.1 47.7,227.4 35,216.8 38.2,200.8 54.1,195.4 66.9,206.1 "/>
<polygon class="st0" points="52.7,191.9 36.9,197.3 24,186.5 27.4,170.5 43.2,165.3 56,175.9 "/>
<polygon class="st0" points="85.3,198 69.3,203.3 56.6,192.6 59.8,176.7 75.8,171.3 88.6,182 "/>
<polygon class="st0" points="106.1,173 90,178.4 77.2,167.7 80.2,151.7 96.3,146.4 109.2,157 "/>
<polygon class="st2" points="69.2,186.3 53.3,191.7 40.4,181 43.7,165 59.7,159.7 72.4,170.4 "/>
<polygon class="st0" points="101.7,192.5 85.8,197.8 72.9,187.1 76.2,171 92.1,165.8 104.9,176.4 "/>
<polygon class="st2" points="90.7,162.2 74.8,167.5 62,156.8 65.3,140.9 81.2,135.5 94,146.2 "/>
<polygon class="st0" points="52.4,276.7 36.4,282.1 23.5,271.4 26.8,255.4 42.8,250.1 55.5,260.7 "/>
<polygon class="st0" points="84.9,282.9 68.8,288.2 56,277.6 59.1,261.6 75.2,256.2 88,267 "/>
<polygon class="st0" points="95.9,228.1 80.1,233.5 67.2,222.8 70.5,206.8 86.5,201.5 99.2,212.2 "/>
<polygon class="st0" points="74.2,252.3 58.4,257.6 45.5,246.9 48.8,230.9 64.8,225.7 77.5,236.3 "/>
<polygon class="st0" points="106.8,259.3 90.8,264.7 78.1,253.7 81.3,237.1 97.3,231.6 110,242.7 "/>
<polygon class="st0" points="112.5,222.6 96.5,228 83.7,217.4 86.9,201.4 102.9,196 115.7,206.6 "/>
<polygon class="st0" points="101.5,277.2 85.6,282.6 72.7,271.8 76,255.9 91.9,250.6 104.7,261.2 "/>
<polygon class="st2" points="134,283.4 118,288.7 105.2,278.1 108.5,262.1 124.5,256.7 137.2,267.4 "/>
<polygon class="st2" points="145.2,228.7 129.1,234 116.3,223.4 119.5,207.4 135.6,202 148.3,212.7 "/>
<polygon class="st2" points="123.6,253.1 107.3,258.3 94.7,247.6 97.7,231.5 113.7,226.3 126.7,237 "/>
<polygon class="st2" points="460.6,48.7 444.7,54 431.9,43.3 435.2,27.3 451.1,22 463.9,32.7 "/>
<polygon class="st2" points="441.3,71 425.4,76.3 412.6,65.6 415.9,49.7 431.8,44.3 444.6,55 "/>
<polygon class="st0" points="438.3,48.7 422.3,54 409.5,43.3 412.7,27.3 428.8,22 441.5,32.7 "/>
<polygon class="st0" points="464.8,71 448.8,76.3 436.1,65.6 439.1,49.7 455.2,44.3 467.9,55 "/>
</svg>
