<?xml version="1.0" encoding="utf-8"?>
<!-- Generator: Adobe Illustrator 23.1.1, SVG Export Plug-In . SVG Version: 6.00 Build 0)  -->
<svg version="1.1" id="Layer_1" xmlns="http://www.w3.org/2000/svg" xmlns:xlink="http://www.w3.org/1999/xlink" x="0px" y="0px"
	 viewBox="0 0 530 328" style="enable-background:new 0 0 530 328;" xml:space="preserve">
<style type="text/css">
	.st0{opacity:0.65;fill:none;stroke:#8DC7FD;stroke-width:3;stroke-miterlimit:10;enable-background:new    ;}
	.st1{opacity:0.65;fill:#FFFFFF;stroke:#000000;stroke-width:3;stroke-miterlimit:10;enable-background:new    ;}
	.st2{opacity:0.65;fill:none;stroke:#E83838;stroke-width:3;stroke-miterlimit:10;enable-background:new    ;}
</style>
<polygon class="st0" points="300.2,104.6 284.4,110 271.5,99.3 274.8,83.3 290.7,78 303.5,88.7 "/>
<path class="st1" d="M289.4,126.1"/>
<polygon class="st2" points="289.3,159.1 273.5,164.4 260.6,153.7 263.9,137.8 279.9,132.4 292.6,143.1 "/>
<polygon class="st0" points="321.8,165 305.8,170.3 293.1,159.7 296.3,143.7 312.2,138.3 325,149 "/>
<polygon class="st0" points="310.8,134.8 295,140.2 282.1,129.4 285.5,113.4 301.3,108.2 314.1,118.8 "/>
<polygon class="st0" points="343.4,140.9 327.4,146.2 314.7,135.5 317.9,119.6 333.9,114.2 346.7,124.9 "/>
<polygon class="st0" points="364.2,115.9 348.1,121.3 335.3,110.6 338.3,94.6 354.4,89.3 367.3,99.9 "/>
<polygon class="st2" points="327.3,129.2 311.4,134.6 298.5,123.9 301.8,107.9 317.8,102.6 330.5,113.3 "/>
<polygon class="st0" points="359.8,135.4 343.9,140.7 331,130 334.3,113.9 350.2,108.7 363,119.3 "/>
<polygon class="st2" points="348.8,105.1 332.9,110.4 320.1,99.7 323.4,83.8 339.3,78.4 352.1,89.1 "/>
<polygon class="st0" points="310.5,219.6 294.5,225 281.6,214.3 284.9,198.3 300.9,193 313.6,203.6 "/>
<polygon class="st0" points="343,225.8 326.9,231.1 314.1,220.5 317.2,204.5 333.3,199.1 346.1,209.9 "/>
<polygon class="st0" points="354,171 338.2,176.4 325.3,165.7 328.6,149.7 344.6,144.4 357.3,155.1 "/>
<polygon class="st0" points="332.3,195.2 316.5,200.5 303.6,189.8 306.9,173.8 322.9,168.6 335.6,179.2 "/>
<polygon class="st0" points="364.9,202.2 348.9,207.6 336.2,196.6 339.4,180 355.4,174.5 368.1,185.6 "/>
<polygon class="st0" points="370.6,165.5 354.6,170.9 341.8,160.3 345,144.3 361,138.9 373.8,149.5 "/>
<polygon class="st0" points="359.6,220.1 343.7,225.5 330.8,214.7 334.1,198.8 350,193.5 362.8,204.1 "/>
<polygon class="st2" points="392.1,226.3 376.1,231.6 363.3,221 366.6,205 382.6,199.6 395.3,210.3 "/>
<polygon class="st2" points="403.3,171.6 387.2,176.9 374.4,166.3 377.6,150.3 393.7,144.9 406.4,155.6 "/>
<polygon class="st2" points="381.7,196 365.4,201.2 352.8,190.5 355.8,174.4 371.8,169.2 384.8,179.9 "/>
<polygon class="st2" points="299.2,189.5 283.4,194.8 270.5,184.1 273.8,168.2 289.8,162.8 302.5,173.5 "/>
<polygon class="st0" points="101.6,285.3 107,301.1 96.4,314 80.3,310.8 75,294.9 85.7,282.1 "/>
<path class="st1" d="M123.1,296"/>
<polygon class="st2" points="156.1,296 161.4,311.8 150.8,324.8 134.9,321.5 129.4,305.5 140.1,292.8 "/>
<polygon class="st0" points="161.9,263.5 167.2,279.5 156.7,292.2 140.7,289.1 135.2,273.2 145.9,260.4 "/>
<polygon class="st0" points="131.7,274.6 137.2,290.4 126.4,303.3 110.4,300 105.2,284.2 115.7,271.4 "/>
<polygon class="st0" points="137.7,242 143.1,258 132.4,270.7 116.5,267.6 111.1,251.6 121.7,238.7 "/>
<polygon class="st0" points="112.7,221.3 118.1,237.4 107.5,250.2 91.4,247.2 86.1,231.2 96.7,218.2 "/>
<polygon class="st2" points="126.1,258.1 131.5,274 120.9,287 104.9,283.7 99.5,267.7 110.2,255 "/>
<polygon class="st0" points="132.2,225.6 137.5,241.5 126.9,254.4 110.8,251.2 105.5,235.3 116.1,222.5 "/>
<polygon class="st2" points="101.9,236.7 107.3,252.6 96.6,265.4 80.7,262.2 75.2,246.3 85.9,233.5 "/>
<polygon class="st0" points="216.5,274.7 222,290.6 211.3,303.6 195.3,300.3 190,284.3 200.5,271.6 "/>
<polygon class="st0" points="222.6,242.1 228,258.2 217.4,271.1 201.4,268 196,251.9 206.7,239.1 "/>
<polygon class="st0" points="167.8,231.3 173.2,247.1 162.6,260 146.6,256.8 141.2,240.8 151.9,228.1 "/>
<polygon class="st0" points="192.1,252.9 197.4,268.7 186.8,281.6 170.7,278.4 165.5,262.4 176.1,249.7 "/>
<polygon class="st2" points="186.4,286.1 191.8,301.9 181.1,314.8 165.2,311.5 159.8,295.6 170.4,282.8 "/>
</svg>
