<?xml version="1.0" encoding="utf-8"?>
<!-- Generator: Adobe Illustrator 23.1.1, SVG Export Plug-In . SVG Version: 6.00 Build 0)  -->
<svg version="1.1" id="Layer_1" xmlns="http://www.w3.org/2000/svg" xmlns:xlink="http://www.w3.org/1999/xlink" x="0px" y="0px"
	 viewBox="0 0 530 328" style="enable-background:new 0 0 530 328;" xml:space="preserve">
<style type="text/css">
	.st0{opacity:0.65;fill:none;stroke:#8DC7FD;stroke-width:3;stroke-miterlimit:10;enable-background:new    ;}
	.st1{opacity:0.65;fill:#FFFFFF;stroke:#000000;stroke-width:3;stroke-miterlimit:10;enable-background:new    ;}
	.st2{opacity:0.65;fill:none;stroke:#E83838;stroke-width:3;stroke-miterlimit:10;enable-background:new    ;}
</style>
<polygon class="st0" points="42.1,160.6 26.3,166 13.4,155.3 16.7,139.3 32.6,134 45.4,144.7 "/>
<path class="st1" d="M31.3,183.2"/>
<polygon class="st2" points="31.9,216.1 16.1,221.4 3.2,210.7 6.5,194.8 22.5,189.4 35.2,200.1 "/>
<polygon class="st0" points="63.7,222.1 47.7,227.4 35,216.8 38.2,200.8 54.1,195.4 66.9,206.1 "/>
<polygon class="st0" points="52.9,191.5 37.1,196.9 24.2,186.1 27.6,170.1 43.4,164.9 56.2,175.5 "/>
<polygon class="st0" points="84.9,197.6 68.9,202.9 56.2,192.2 59.4,176.3 75.4,170.9 88.2,181.6 "/>
<polygon class="st0" points="106.1,173 90,178.4 77.2,167.7 80.2,151.7 96.3,146.4 109.2,157 "/>
<polygon class="st2" points="69.9,185.6 54,191 41.1,180.3 44.4,164.3 60.4,159 73.1,169.7 "/>
<polygon class="st0" points="101.7,192 85.8,197.3 72.9,186.6 76.2,170.5 92.1,165.3 104.9,175.9 "/>
<polygon class="st2" points="90.9,161.1 75,166.4 62.2,155.7 65.5,139.8 81.4,134.4 94.2,145.1 "/>
<polygon class="st0" points="53.3,277.2 37.3,282.6 24.4,271.9 27.7,255.9 43.7,250.6 56.4,261.2 "/>
<polygon class="st0" points="85.1,283.2 69,288.5 56.2,277.9 59.3,261.9 75.4,256.5 88.2,267.3 "/>
<polygon class="st0" points="95.5,228.2 79.7,233.6 66.8,222.9 70.1,206.9 86.1,201.6 98.8,212.3 "/>
<polygon class="st0" points="74.2,252.7 58.4,258 45.5,247.3 48.8,231.3 64.8,226.1 77.5,236.7 "/>
<polygon class="st0" points="106.2,259.3 90.2,264.7 77.5,253.7 80.7,237.1 96.7,231.6 109.4,242.7 "/>
<polygon class="st0" points="112.4,222.4 96.4,227.8 83.6,217.2 86.8,201.2 102.8,195.8 115.6,206.4 "/>
<polygon class="st0" points="100.1,277.3 84.2,282.7 71.3,271.9 74.6,256 90.5,250.7 103.3,261.3 "/>
<polygon class="st2" points="133.7,283.6 117.7,288.9 104.9,278.3 108.2,262.3 124.2,256.9 136.9,267.6 "/>
<polygon class="st2" points="144.5,228.8 128.4,234.1 115.6,223.5 118.8,207.5 134.9,202.1 147.6,212.8 "/>
<polygon class="st2" points="123.3,253.4 107,258.6 94.4,247.9 97.4,231.8 113.4,226.6 126.4,237.3 "/>
<polygon class="st2" points="460.6,48.7 444.7,54 431.9,43.3 435.2,27.3 451.1,22 463.9,32.7 "/>
<polygon class="st2" points="441.3,71 425.4,76.3 412.6,65.6 415.9,49.7 431.8,44.3 444.6,55 "/>
<polygon class="st0" points="438.3,48.7 422.3,54 409.5,43.3 412.7,27.3 428.8,22 441.5,32.7 "/>
<polygon class="st0" points="464.8,71 448.8,76.3 436.1,65.6 439.1,49.7 455.2,44.3 467.9,55 "/>
</svg>
