<?xml version="1.0" encoding="utf-8"?>
<!-- Generator: Adobe Illustrator 23.1.1, SVG Export Plug-In . SVG Version: 6.00 Build 0)  -->
<svg version="1.1" id="Layer_1" xmlns="http://www.w3.org/2000/svg" xmlns:xlink="http://www.w3.org/1999/xlink" x="0px" y="0px"
	 viewBox="0 0 530 830" style="enable-background:new 0 0 530 830;" xml:space="preserve">
<style type="text/css">
	.st0{fill:none;stroke:#BDBDBD;stroke-width:3;stroke-miterlimit:10;}
	.st1{fill:#FFFFFF;stroke:#000000;stroke-width:3;stroke-miterlimit:10;}
	.st2{fill:none;stroke:#95BBE3;stroke-width:3;stroke-miterlimit:10;}
	.st3{fill:none;stroke:#95BBE3;stroke-miterlimit:10;}
	.st4{fill:none;stroke:#E83838;stroke-width:2.9999;stroke-miterlimit:9.9995;}
	.st5{fill:none;stroke:#E83838;stroke-width:3;stroke-miterlimit:10;}
	.st6{fill:none;stroke:#E83838;stroke-miterlimit:10;}
</style>
<path class="st0" d="M265.8,826.9c-17.5-21.7-37.3-54.1-36-93c2.9-83.4,100.2-111.2,89-178c-8.4-49.9-67.6-62.9-66-118.9
	c0.7-26.2,14.4-47.5,26-61.5"/>
<path class="st1" d="M-157,82"/>
<path class="st0" d="M355.1,779.6c-49.4-73-49.7-120.9-41-151c14.5-50.2,55.6-57.1,66-114c7.8-42.6-11.7-57.4-13-118
	c-1-45.7,9.2-83.3,18-108"/>
<g>
	<ellipse class="st2" cx="388.2" cy="193.9" rx="68.5" ry="81.5"/>
	<polyline class="st2" points="378.2,274.5 373.4,286.1 393.4,292.1 388.2,275.4 	"/>
	<path class="st3" d="M353.1,131.5c-3.2,2.7-24.6,21.2-27.6,55.8c-3.4,38.9,19.7,64.1,21.9,66.5c-4-12.7-9.7-36.4-7.6-66.2
		C341.5,162.3,348.2,143,353.1,131.5z"/>
</g>
<g>
	
		<ellipse transform="matrix(0.9876 -0.1567 0.1567 0.9876 -40.7116 45.8164)" class="st4" cx="270.2" cy="281.1" rx="68.5" ry="81.5"/>
	<polyline class="st5" points="273,362.3 270.1,374.5 290.8,377.3 283,361.6 	"/>
	<path class="st6" d="M225.8,225c-2.7,3.1-21,24.8-18.5,59.4c2.8,39,29.5,60.3,32.1,62.3c-5.9-11.9-15.3-34.4-17.9-64.2
		C219.2,257.3,222.8,237.1,225.8,225z"/>
</g>
</svg>
