<svg xmlns="http://www.w3.org/2000/svg" viewBox="0 0 1366 39.59"><defs><style>.cls-1{fill:#212121;}</style></defs><title>strip2</title><g id="Layer_2" data-name="Layer 2"><g id="Layer_1-2" data-name="Layer 1"><path class="cls-1" d="M0,18.5l21.36,21,21.3-20.91L64,39.5l21.42-21,21.39,21,21.36-21,21.39,21,21.4-21,21.32,20.94,21.3-20.91L234.9,39.47l21.3-20.91,21.42,21,21.52-21.12,21.33,20.94,21.26-20.88L363,39.38l21.34-21,21.57,21.17,21.5-21.11,21.28,20.9L469.9,18.53l21.29,20.91,21.08-20.69L533.4,39.5l21.33-20.94L576,39.41l21.11-20.72,21.17,20.78,21.23-20.85,21.2,20.82L682,18.53,703.3,39.47l21.14-20.75,21.25,20.86,21.48-21.1,21.48,21.08,21.42-21,21.41,21L852.71,18.7l21,20.64,21.1-20.72L916,39.34l21.17-20.78,21.26,20.88,21.31-20.92,21.37,21,21.39-21,21.31,20.92,21.33-20.94,21.39,21,21.46-21.07,21.3,20.91,21.16-20.78,21.2,20.82,21.17-20.79L1214,39.44l21.49-21.1,21.6,21.2,21.48-21.09,21.5,21.11,21.46-21.06,21.2,20.81L1366,18V0H0Z"/></g></g></svg>