<svg xmlns="http://www.w3.org/2000/svg" xmlns:xlink="http://www.w3.org/1999/xlink" viewBox="0 0 1366 761"><defs><style>.cls-1{fill:url(#linear-gradient);}</style><linearGradient id="linear-gradient" y1="380.5" x2="1366" y2="380.5" gradientUnits="userSpaceOnUse"><stop offset="0" stop-color="#69ff2a" stop-opacity="0.6"/><stop offset="0.27" stop-color="#6cff2e" stop-opacity="0.59"/><stop offset="0.44" stop-color="#76ff3d" stop-opacity="0.56"/><stop offset="0.58" stop-color="#88ff56" stop-opacity="0.5"/><stop offset="0.71" stop-color="#a0ff78" stop-opacity="0.42"/><stop offset="0.83" stop-color="#c0ffa5" stop-opacity="0.31"/><stop offset="0.94" stop-color="#e6ffdc" stop-opacity="0.18"/><stop offset="1" stop-color="#fff" stop-opacity="0.1"/></linearGradient></defs><title>Asset 5</title><g id="Layer_2" data-name="Layer 2"><g id="Layer_1-2" data-name="Layer 1"><path class="cls-1" d="M1366,12.37c-99.55-26.15-143.31-6.11-164.93,16.44-33.38,34.83-32.15,94.66-82,119.61-8.08,4-19.45,8.15-41.9,9.29-106,5.38-140.41-71.51-232.31-71.9-47.81-.2-46.52,20.56-143.69,31.79-38.9,4.49-60.05,6.77-88,2.19C542,108.12,532.3,69.29,478.61,57.31c-73.36-16.37-87.4,49-180.11,51.48C208.64,111.24,180,51,111.3,67.18c-54,12.7-89.88,62.5-111.3,101V761H1365Q1365.5,386.69,1366,12.37Z"/></g></g></svg>