<?xml version="1.0" encoding="utf-8"?>
<!-- Generator: Adobe Illustrator 23.1.1, SVG Export Plug-In . SVG Version: 6.00 Build 0)  -->
<svg version="1.1" id="Layer_1" xmlns="http://www.w3.org/2000/svg" xmlns:xlink="http://www.w3.org/1999/xlink" x="0px" y="0px"
	 viewBox="0 0 110 140" style="enable-background:new 0 0 110 140;" xml:space="preserve">
<style type="text/css">
	.st0{opacity:0.65;fill:none;stroke:#8DC7FD;stroke-width:2.15;stroke-miterlimit:10;enable-background:new    ;}
	.st1{opacity:0.65;fill:none;stroke:#E83838;stroke-width:2.15;stroke-miterlimit:10;enable-background:new    ;}
</style>
<polygon class="st0" points="23,66.4 20.5,78.5 29.8,86.7 41.5,82.8 44,70.7 34.7,62.5 "/>
<polygon class="st0" points="47,71.3 44.5,83.4 53.7,91.6 65.4,87.7 67.9,75.6 58.7,67.4 "/>
<polygon class="st0" points="39.2,48.2 36.8,60.3 46,68.5 57.7,64.7 60.2,52.6 50.9,44.4 "/>
<polygon class="st1" points="55.4,30 52.9,42.2 62.1,50.4 73.9,46.4 76.3,34.3 67.1,26.1 "/>
<polygon class="st0" points="31.5,25.1 29,37.3 38.2,45.5 49.9,41.5 52.4,29.4 43.2,21.2 "/>
<polygon class="st1" points="15.3,43.4 12.9,55.5 22.1,63.7 33.8,59.8 36.3,47.7 27.1,39.5 "/>
<polygon class="st0" points="56.9,68 54.4,80.1 63.7,88.3 75.4,84.4 77.9,72.3 68.7,64.1 "/>
<polygon class="st1" points="40.6,86.3 38.1,98.4 47.3,106.6 59.1,102.7 61.6,90.6 52.3,82.4 "/>
</svg>
