<?xml version="1.0" encoding="utf-8"?>
<!-- Generator: Adobe Illustrator 23.1.1, SVG Export Plug-In . SVG Version: 6.00 Build 0)  -->
<svg version="1.1" id="Layer_1" xmlns="http://www.w3.org/2000/svg" xmlns:xlink="http://www.w3.org/1999/xlink" x="0px" y="0px"
	 viewBox="0 0 110 140" style="enable-background:new 0 0 110 140;" xml:space="preserve">
<style type="text/css">
	.st0{opacity:0.65;fill:none;stroke:#8DC7FD;stroke-width:3;stroke-miterlimit:10;enable-background:new    ;}
	.st1{opacity:0.65;fill:none;stroke:#E83838;stroke-width:3;stroke-miterlimit:10;enable-background:new    ;}
</style>
<polygon class="st0" points="37.8,92.1 21.8,97.4 9.1,86.8 12.3,70.8 28.2,65.4 41,76.1 "/>
<polygon class="st0" points="59.5,68 43.5,73.3 30.8,62.6 34,46.7 50,41.3 62.8,52 "/>
<polygon class="st1" points="43.4,56.2 27.5,61.6 14.6,50.9 17.9,34.9 33.9,29.6 46.6,40.3 "/>
<polygon class="st0" points="75.8,62.4 59.9,67.7 47,57 50.3,40.9 66.2,35.7 79,46.3 "/>
<polygon class="st0" points="70,98.1 54.2,103.5 41.3,92.8 44.6,76.8 60.6,71.5 73.3,82.2 "/>
<polygon class="st0" points="48.3,122.3 32.5,127.6 19.6,116.9 22.9,100.9 38.9,95.7 51.6,106.3 "/>
<polygon class="st0" points="81,129.3 65,134.7 52.3,123.7 55.5,107.1 71.5,101.6 84.2,112.7 "/>
<polygon class="st0" points="86.6,92.6 70.6,98 57.8,87.4 61,71.4 77,66 89.8,76.6 "/>
<polygon class="st1" points="97.8,123 81.5,128.2 68.9,117.5 71.9,101.4 87.9,96.2 100.9,106.9 "/>
<polygon class="st1" points="64.5,117 48.6,122.3 35.8,111.6 39.1,95.7 55,90.3 67.8,101 "/>
</svg>
