<svg xmlns="http://www.w3.org/2000/svg" viewBox="0 0 146.94 54.54"><defs><style>.cls-1,.cls-2,.cls-4{fill:none;stroke-miterlimit:10;}.cls-1{stroke:#fff;}.cls-1,.cls-2{stroke-width:6.05px;}.cls-1,.cls-2,.cls-3,.cls-4{isolation:isolate;}.cls-2{stroke:#adcdec;}.cls-4{stroke:#ea6668;stroke-width:5.88px;}</style></defs><title>Asset 10</title><g id="Layer_2" data-name="Layer 2"><g id="Layer_1-2" data-name="Layer 1"><polygon class="cls-1" points="45.56 3.14 17.63 3.14 3.67 27.33 17.63 51.52 45.56 51.52 59.53 27.33 45.56 3.14"/><polygon class="cls-2" points="45.39 3.09 17.46 3.09 3.49 27.28 17.46 51.46 45.39 51.46 59.35 27.28 45.39 3.09"/><g class="cls-3"><polygon class="cls-4" points="73.51 3.02 45.58 3.02 31.62 27.21 45.58 51.4 73.51 51.4 87.48 27.21 73.51 3.02"/><polygon class="cls-4" points="73.51 3.02 45.58 3.02 31.62 27.21 45.58 51.4 73.51 51.4 87.48 27.21 73.51 3.02"/></g><polygon class="cls-2" points="129.49 3.02 101.56 3.02 87.59 27.21 101.56 51.4 129.49 51.4 143.45 27.21 129.49 3.02"/></g></g></svg>