<?xml version="1.0" encoding="utf-8"?>
<!-- Generator: Adobe Illustrator 23.1.1, SVG Export Plug-In . SVG Version: 6.00 Build 0)  -->
<svg version="1.1" id="Layer_1" xmlns="http://www.w3.org/2000/svg" xmlns:xlink="http://www.w3.org/1999/xlink" x="0px" y="0px"
	 viewBox="0 0 33.2 44.6" style="enable-background:new 0 0 33.2 44.6;" xml:space="preserve">
<style type="text/css">
	.st0{opacity:0.6;fill:#95C4E9;enable-background:new    ;}
	.st1{fill:none;stroke:#202020;stroke-width:2;stroke-miterlimit:10;}
	.st2{fill:#FFFFFF;stroke:#FFFFFF;stroke-miterlimit:10;}
</style>
<title>Asset 1cru</title>
<g>
	<g id="Layer_1-2">
		<path class="st0" d="M29.9,40.9H8.5c-1.2,0-2.1-0.9-2.1-2.1V10c0-1.1,1-2.1,2.1-2.1h21.5c1.2,0,2.1,0.9,2.1,2.1v28.9
			C32,40,31.1,40.9,29.9,40.9z"/>
		<path class="st1" d="M2,5.8h23.9c0.4,0,0.6,0.3,0.6,0.6v31.8c0,0.4-0.3,0.6-0.6,0.6H2c-0.4,0-0.6-0.3-0.6-0.6V6.4
			C1.4,6.1,1.7,5.8,2,5.8z"/>
		<path class="st1" d="M4.7,24.1L6.8,20c0-0.1,0.1-0.1,0.2-0.1c0.1,0,0.1,0.1,0.1,0.1l4.9,9.9c0.1,0.1,0.3,0.1,0.3,0l4.4-14
			c0-0.1,0.1-0.1,0.2-0.1c0.1,0,0.1,0.1,0.1,0.1l2.7,8c0,0.1,0.1,0.1,0.2,0.1h2.8"/>
	</g>
</g>
<line class="st1" x1="1.4" y1="37" x2="27.1" y2="37"/>
<circle class="st2" cx="13.7" cy="37.9" r="0.9"/>
</svg>
