<?xml version="1.0" encoding="utf-8"?>
<!-- Generator: Adobe Illustrator 23.1.1, SVG Export Plug-In . SVG Version: 6.00 Build 0)  -->
<svg version="1.1" id="Layer_1" xmlns="http://www.w3.org/2000/svg" xmlns:xlink="http://www.w3.org/1999/xlink" x="0px" y="0px"
	 viewBox="0 0 39.1 32.5" style="enable-background:new 0 0 39.1 32.5;" xml:space="preserve">
<style type="text/css">
	.st0{opacity:0.6;fill:#95C4E9;enable-background:new    ;}
	.st1{fill:none;stroke:#202020;stroke-width:2;stroke-miterlimit:10;}
	.st2{fill:none;stroke:#202020;stroke-width:1.2;stroke-miterlimit:10;}
	.st3{fill:#FFFFFF;stroke:#FFFFFF;stroke-miterlimit:10;}
</style>
<title>Asset 1cru</title>
<g>
	<g>
		<g id="Layer_1-2">
			<path class="st0" d="M32.6,13.7V30c0,0.9-0.8,1.6-1.8,1.6H5.4c-1,0-1.8-0.8-1.8-1.6V13.6c0-0.9,0.8-1.6,1.8-1.6h25.4
				C31.8,12.1,32.6,12.8,32.6,13.7z"/>
			<path class="st1" d="M1,28.3V10.2c0-0.3,0.3-0.5,0.5-0.5h28c0.4,0,0.5,0.2,0.5,0.5v18.2c0,0.3-0.3,0.5-0.5,0.5h-28
				C1.2,28.8,1,28.6,1,28.3z"/>
			<path class="st2" d="M8.1,20.4l1.8-3.1c0-0.1,0.1-0.1,0.2-0.1s0.1,0.1,0.1,0.1l4.3,7.5c0.1,0.1,0.3,0.1,0.3,0l3.9-10.6
				c0-0.1,0.1-0.1,0.2-0.1c0.1,0,0.1,0.1,0.1,0.1l2.4,6.1c0,0.1,0.1,0.1,0.2,0.1h2.5"/>
		</g>
	</g>
	<line class="st1" x1="28.4" y1="28.8" x2="28.4" y2="9.3"/>
	<ellipse class="st3" cx="29.2" cy="19.4" rx="0.8" ry="0.7"/>
</g>
</svg>
