<svg xmlns="http://www.w3.org/2000/svg" viewBox="0 0 33.2 44.6"><defs><style>.cls-1{fill:#95c4e9;opacity:0.6;isolation:isolate;}.cls-2,.cls-3{fill:none;stroke:#231f20;stroke-miterlimit:10;}.cls-2{stroke-width:2px;}</style></defs><title>Asset 1cru</title><g id="Layer_2" data-name="Layer 2"><g id="Layer_1-2" data-name="Layer 1"><path class="cls-1" d="M30.8,44.6H6.6a2.43,2.43,0,0,1-2.4-2.4V8.7A2.43,2.43,0,0,1,6.6,6.3H30.8a2.43,2.43,0,0,1,2.4,2.4V42.2A2.43,2.43,0,0,1,30.8,44.6Z"/><rect class="cls-2" x="1" y="4.1" width="29.2" height="38.4"/><line class="cls-2" x1="7.6" y1="1" x2="23.6" y2="1"/><path class="cls-3" d="M4.1,25.4l2.5-4.8a.21.21,0,0,1,.4,0l5.7,11.5c.1.1.3.1.3,0l5.1-16.3a.21.21,0,0,1,.4,0l3.1,9.3c0,.1.1.1.2.1H25"/><circle class="cls-3" cx="26" cy="25.1" r="1"/></g></g></svg>