<?xml version="1.0" encoding="utf-8"?>
<!-- Generator: Adobe Illustrator 23.1.1, SVG Export Plug-In . SVG Version: 6.00 Build 0)  -->
<svg version="1.1" id="Layer_1" xmlns="http://www.w3.org/2000/svg" xmlns:xlink="http://www.w3.org/1999/xlink" x="0px" y="0px"
	 viewBox="0 0 39.1 32.5" style="enable-background:new 0 0 39.1 32.5;" xml:space="preserve">
<style type="text/css">
	.st0{opacity:0.6;fill:#95C4E9;enable-background:new    ;}
	.st1{fill:none;stroke:#202020;stroke-width:1.5;stroke-miterlimit:10;}
	.st2{fill:none;stroke:#202020;stroke-width:1.2;stroke-miterlimit:10;}
	.st3{fill:none;stroke:#202020;stroke-width:2;stroke-miterlimit:10;}
	.st4{fill:#FFFFFF;stroke:#FFFFFF;stroke-miterlimit:10;}
</style>
<title>Asset 1cru</title>
<g>
	<g>
		<g id="Layer_1-2">
			<path class="st0" d="M30,15.2v15c0,0.8-0.7,1.5-1.7,1.5H5c-0.9,0-1.7-0.7-1.7-1.5V15.1c0-0.8,0.7-1.5,1.7-1.5h23.3
				C29.3,13.7,30,14.3,30,15.2z"/>
			<path class="st1" d="M1,28.6V12c0-0.3,0.3-0.5,0.5-0.5h25.7c0.4,0,0.5,0.2,0.5,0.5v16.7c0,0.3-0.3,0.5-0.5,0.5H1.5
				C1.2,29,1,28.8,1,28.6z"/>
			<path class="st2" d="M7.5,21.3l1.7-2.8c0-0.1,0.1-0.1,0.2-0.1c0.1,0,0.1,0.1,0.1,0.1l3.9,6.9c0.1,0.1,0.3,0.1,0.3,0l3.6-9.7
				c0-0.1,0.1-0.1,0.2-0.1s0.1,0.1,0.1,0.1l2.2,5.6c0,0.1,0.1,0.1,0.2,0.1h2.3"/>
		</g>
	</g>
	<line class="st3" x1="26.4" y1="29" x2="26.4" y2="11.1"/>
	<ellipse class="st4" cx="26.9" cy="20.5" rx="0.7" ry="0.6"/>
</g>
</svg>
