<?xml version="1.0" encoding="utf-8"?>
<!-- Generator: Adobe Illustrator 23.1.1, SVG Export Plug-In . SVG Version: 6.00 Build 0)  -->
<svg version="1.1" id="Layer_1" xmlns="http://www.w3.org/2000/svg" xmlns:xlink="http://www.w3.org/1999/xlink" x="0px" y="0px"
	 viewBox="0 0 39.5 35.2" style="enable-background:new 0 0 39.5 35.2;" xml:space="preserve">
<style type="text/css">
	.st0{opacity:0.6;fill:#95C4E9;enable-background:new    ;}
	.st1{fill:none;stroke:#202020;stroke-width:2;stroke-miterlimit:10;}
</style>
<path class="st0" d="M19,34l-8.1-8.4c-0.5-0.5-0.2-1.7,0.7-2.6l10.1-9.8c0.9-0.9,2-1.1,2.6-0.6l8.1,8.4c0.5,0.5,0.2,1.7-0.7,2.6
	l-10.1,9.8C20.7,34.2,19.6,34.5,19,34C19.1,34,19,34,19,34z"/>
<title>Asset 1cru</title>
<path class="st1" d="M15.3,13.7l-8,7.4c-0.4,0.4-0.4,1,0,1.3l7.5,7"/>
<path class="st1" d="M25.3,14.1l8,7.4c0.4,0.4,0.4,1,0,1.3l-7.5,7"/>
<line class="st1" x1="16.8" y1="32.3" x2="23" y2="11.6"/>
</svg>
